<?xml version="1.0" standalone="no"?>
<!DOCTYPE svg PUBLIC "-//W3C//DTD SVG 20010904//EN"
 "http://www.w3.org/TR/2001/REC-SVG-20010904/DTD/svg10.dtd">
<svg version="1.0" xmlns="http://www.w3.org/2000/svg"
 width="1530.000000pt" height="1068.000000pt" viewBox="0 0 1530.000000 1068.000000"
 preserveAspectRatio="xMidYMid meet">
<metadata>
Created by potrace 1.10, written by Peter Selinger 2001-2011
</metadata>
<g transform="translate(0.000000,1068.000000) scale(0.100000,-0.100000)"
fill="#8c1616" stroke="none">
<path d="M0 6040 l0 -1550 6739 0 c6136 0 6739 1 6745 16 8 20 8 3048 0 3068
-6 15 -609 16 -6745 16 l-6739 0 0 -1550z m813 311 c65 -33 97 -78 97 -138 0
-74 -25 -115 -96 -159 -18 -11 -16 -15 23 -48 49 -43 63 -81 63 -179 0 -64 2
-71 31 -97 l30 -29 -30 -15 c-17 -9 -50 -16 -75 -16 -105 0 -137 45 -145 203
-6 104 -7 110 -34 133 -35 30 -72 31 -87 4 -12 -23 -9 -281 4 -317 7 -20 4
-22 -35 -25 -24 -2 -77 -2 -117 0 -65 3 -73 6 -65 20 13 27 16 628 3 652 -6
11 -8 25 -5 30 3 6 85 9 196 9 185 -1 192 -2 242 -28z m723 12 c8 -9 15 -37
16 -74 0 -32 1 -65 2 -71 1 -7 -7 -14 -16 -16 -10 -2 -18 2 -18 9 0 6 -9 31
-21 54 -25 51 -87 85 -154 85 -59 0 -65 -13 -65 -152 0 -88 4 -119 16 -136 15
-21 15 -25 0 -41 -13 -14 -16 -43 -16 -159 0 -131 2 -144 21 -163 11 -11 18
-23 15 -26 -8 -8 -223 -9 -231 -1 -4 4 -2 22 4 40 18 51 13 584 -5 621 -8 15
-12 32 -9 37 3 5 103 9 226 8 177 -1 223 -3 235 -15z m487 0 c8 -10 43 -101
78 -203 34 -102 71 -210 82 -240 10 -30 23 -68 27 -85 15 -52 34 -99 53 -125
9 -13 17 -28 17 -32 0 -5 -52 -8 -116 -8 l-116 0 6 32 c8 38 -27 152 -56 184
-12 14 -28 20 -41 18 l-22 -5 21 10 c12 5 25 15 29 21 10 16 -54 201 -81 233
-13 16 -24 32 -24 36 0 16 50 154 61 167 16 20 63 17 82 -3z m602 7 c3 -5 -1
-23 -10 -39 -12 -25 -15 -78 -15 -316 0 -273 1 -286 20 -305 18 -18 28 -20 73
-14 29 4 66 15 84 26 31 18 73 88 73 120 0 9 7 21 16 29 24 20 34 -5 34 -92 0
-119 15 -113 -265 -111 -130 0 -240 4 -243 7 -3 3 1 18 10 33 22 39 24 582 2
626 -11 24 -12 31 -2 38 18 11 216 10 223 -2z m618 -125 c27 -71 60 -161 74
-200 32 -86 41 -99 59 -84 8 6 14 20 14 30 0 19 2 26 33 87 9 19 17 44 17 56
0 12 6 30 13 41 8 11 22 45 31 75 10 30 25 71 34 90 l17 35 98 3 c80 2 98 0
103 -13 4 -8 1 -21 -5 -29 -16 -19 -19 -603 -3 -632 6 -12 8 -24 5 -28 -3 -3
-56 -6 -116 -6 -101 0 -108 1 -101 18 5 9 9 138 9 286 0 207 -3 270 -12 273
-7 3 -13 -2 -13 -11 0 -8 -6 -30 -14 -48 -8 -18 -26 -69 -40 -113 -84 -262
-130 -385 -149 -397 -31 -20 -32 -18 -169 382 -27 79 -116 268 -139 296 -15
19 6 23 111 21 l95 -2 48 -130z m1342 118 c30 -15 40 -15 71 -4 23 8 40 9 45
4 14 -14 7 -175 -8 -180 -7 -3 -23 17 -37 44 -25 49 -50 76 -100 107 -22 14
-43 17 -89 14 -54 -4 -64 -8 -88 -38 -36 -43 -42 -91 -37 -321 3 -165 6 -188
25 -225 13 -24 34 -46 50 -52 38 -16 114 -18 139 -4 40 21 92 91 114 151 22
60 42 76 54 45 3 -9 6 -58 6 -110 0 -107 -12 -125 -56 -83 l-24 23 -30 -22
c-16 -12 -38 -22 -49 -22 -11 0 -23 -4 -26 -10 -3 -5 -41 -10 -83 -10 -99 0
-175 34 -245 108 -61 67 -88 128 -94 222 -12 161 54 280 192 346 62 30 79 34
152 34 57 0 93 -5 118 -17z m704 -19 c75 -38 110 -74 150 -158 87 -178 10
-403 -166 -487 -60 -29 -71 -31 -151 -27 -66 2 -99 9 -135 27 -68 33 -135 104
-168 179 -25 54 -29 77 -29 148 0 130 48 230 140 293 66 45 116 60 206 60 74
1 88 -2 153 -35z m476 -1 c18 -21 49 -60 67 -88 19 -27 65 -95 103 -150 94
-139 100 -136 102 45 1 137 0 147 -22 181 -13 20 -21 40 -18 43 8 8 98 8 106
0 3 -4 -3 -18 -14 -33 -18 -25 -19 -45 -20 -331 -1 -168 -6 -313 -11 -322 -15
-31 -36 -20 -83 45 -25 34 -86 118 -136 186 -50 68 -104 146 -121 175 -41 68
-68 96 -90 96 -13 0 -21 12 -29 44 -6 25 -24 59 -40 77 -53 60 -42 69 78 69
l94 0 34 -37z m866 20 c38 -15 43 -15 70 1 27 16 28 16 39 -3 11 -21 14 -122
4 -158 -10 -36 -27 -26 -54 30 -35 73 -103 117 -181 117 -67 0 -101 -25 -118
-86 -14 -50 -14 -417 -1 -466 6 -21 22 -51 36 -68 23 -27 31 -30 85 -30 97 0
140 33 199 152 19 39 40 70 45 69 13 -1 19 -206 7 -227 -7 -13 -13 -12 -40 11
-31 26 -32 26 -59 8 -45 -30 -95 -43 -166 -43 -125 0 -246 79 -305 200 -23 48
-26 67 -27 155 0 115 15 163 72 233 66 81 157 120 280 121 46 1 88 -5 114 -16z
m681 0 c7 -8 14 -46 16 -84 5 -84 -14 -94 -47 -24 -16 35 -32 50 -71 70 -28
14 -66 25 -88 25 -54 0 -62 -25 -58 -162 3 -112 12 -138 48 -138 27 0 78 54
78 83 0 30 10 40 27 26 15 -13 19 -204 4 -228 -12 -19 -31 -5 -31 24 0 32 -55
77 -89 73 l-26 -3 -3 -154 c-2 -104 1 -158 9 -167 17 -20 94 -17 138 6 50 25
80 63 87 111 7 41 26 65 44 54 6 -3 10 -44 10 -94 0 -108 -5 -115 -98 -114
-295 1 -399 3 -404 9 -4 3 -2 17 3 31 14 37 13 607 -1 633 -6 11 -8 25 -5 30
3 5 98 9 225 9 185 0 221 -3 232 -16z m593 -24 c61 -43 76 -72 77 -147 1 -93
-46 -156 -137 -181 -48 -13 -132 -14 -139 -2 -3 4 11 19 32 32 49 32 66 82 58
171 -3 36 -8 72 -11 80 -8 17 -75 68 -91 68 -27 0 -28 -20 -21 -502 l2 -187
-29 -5 c-37 -8 -101 -7 -148 0 -28 5 -38 12 -38 25 0 10 5 21 10 24 6 4 10
115 10 301 0 259 -2 298 -17 320 -14 22 -14 27 -2 35 8 5 100 8 204 6 l191 -2
49 -36z m695 21 c5 -10 13 -50 16 -89 7 -68 6 -71 -14 -71 -16 0 -24 9 -32 38
-12 42 -33 71 -72 95 -36 22 -55 21 -68 -3 -11 -20 -11 -608 0 -640 4 -11 -9
-16 -60 -22 -93 -11 -160 -1 -160 22 0 11 5 22 10 25 14 9 13 590 0 616 -13
24 -23 24 -74 -2 -40 -20 -66 -58 -90 -132 -13 -39 -26 -2 -26 73 0 58 4 83
16 94 14 14 51 16 280 15 244 -1 265 -2 274 -19z m598 8 c5 -7 21 -42 35 -78
14 -36 37 -96 52 -135 15 -38 36 -98 47 -132 12 -38 25 -63 34 -63 8 0 14 6
14 14 0 7 7 19 15 26 8 7 15 25 15 40 0 15 7 33 15 40 8 7 15 22 15 34 0 12 7
31 15 42 8 10 15 29 15 40 0 12 7 27 15 34 8 7 15 20 15 29 0 9 8 39 18 66
l18 50 89 3 c50 2 100 0 113 -3 21 -5 22 -7 7 -35 -12 -24 -15 -80 -15 -319 0
-199 4 -298 12 -316 6 -14 8 -28 5 -31 -8 -9 -215 -9 -224 -1 -3 4 -1 18 5 32
8 18 12 107 12 275 0 243 -1 250 -20 250 -15 0 -20 -7 -20 -28 0 -16 -7 -37
-15 -48 -8 -10 -15 -28 -15 -39 0 -11 -6 -29 -14 -40 -7 -11 -16 -31 -19 -45
-3 -14 -30 -97 -61 -185 -31 -88 -56 -161 -56 -162 0 -8 -50 -2 -55 6 -6 11
-76 205 -145 406 -42 124 -50 140 -69 138 -18 -2 -21 3 -21 33 0 20 -9 49 -21
65 -11 16 -17 33 -14 39 9 15 190 13 203 -2z m1029 -38 c11 -25 30 -74 42
-110 55 -177 162 -475 182 -506 11 -19 20 -37 18 -39 -6 -5 -87 -9 -163 -7
l-68 2 6 35 c5 23 2 45 -9 64 -8 17 -15 40 -15 52 0 11 -16 37 -35 56 -31 31
-33 37 -20 47 14 10 12 23 -20 121 -20 61 -45 117 -56 127 -24 20 -24 31 1
103 30 88 45 107 83 103 27 -3 35 -10 54 -48z m793 22 c67 -33 91 -67 97 -129
6 -62 -22 -122 -72 -153 -19 -12 -35 -25 -35 -28 0 -4 20 -26 44 -49 47 -46
56 -72 56 -164 0 -57 15 -109 32 -109 18 0 6 -28 -17 -38 -42 -19 -113 -15
-146 9 -45 31 -56 65 -61 176 -6 119 -19 149 -74 159 -20 4 -40 2 -46 -4 -6
-6 -8 -74 -6 -180 l3 -171 -52 -7 c-29 -3 -78 -3 -109 1 -52 6 -55 8 -48 28 5
12 10 156 11 319 3 249 1 303 -11 327 -9 16 -12 31 -9 35 3 3 92 5 198 5 188
0 193 -1 245 -27z m490 -2 c-9 -49 -5 -265 5 -265 16 0 235 238 235 255 0 35
54 53 89 31 10 -7 7 -13 -14 -27 -53 -36 -185 -177 -185 -197 0 -7 32 -67 71
-133 39 -65 89 -156 111 -201 22 -45 48 -89 59 -99 26 -23 24 -44 -3 -44 -13
-1 -52 -2 -88 -4 -81 -4 -116 5 -112 28 2 9 -28 74 -65 144 -37 70 -72 137
-76 150 -5 13 -14 21 -20 19 -8 -2 -13 -48 -15 -140 -2 -108 1 -143 13 -167
l16 -30 -33 -1 c-55 -2 -203 3 -206 6 -2 2 4 17 12 34 14 25 16 75 16 316 0
185 -4 293 -11 306 -23 43 -7 50 103 47 l103 -3 -5 -25z m969 16 c24 -30 25
-146 0 -146 -5 0 -9 5 -9 11 0 6 -12 26 -26 44 -47 62 -183 105 -204 65 -15
-27 -13 -273 2 -288 9 -9 9 -15 0 -24 -19 -19 -16 -307 3 -335 15 -21 14 -22
-49 -28 -35 -4 -87 -4 -116 0 -50 7 -52 8 -44 34 4 14 9 158 11 318 3 247 1
297 -12 322 -11 23 -12 31 -2 34 28 11 437 4 446 -7z m682 -14 c13 -33 8 -134
-7 -139 -6 -2 -18 14 -26 36 -17 42 -87 101 -119 101 -37 0 -41 -30 -36 -333
3 -161 8 -304 12 -319 l7 -28 -112 0 -112 0 7 28 c4 15 9 159 12 320 4 259 3
296 -12 318 l-16 25 -47 -26 c-46 -25 -68 -53 -92 -118 -5 -16 -16 -27 -23
-24 -14 5 -11 155 4 174 7 8 87 11 280 11 l270 0 10 -26z m-11706 -214 c10
-40 1 -201 -11 -205 -7 -2 -23 16 -38 40 -16 29 -35 47 -52 51 l-27 7 45 42
c25 23 49 52 52 65 4 12 11 22 16 22 6 0 12 -10 15 -22z m4163 -165 l-2 -188
-6 180 c-6 169 -5 195 6 195 2 0 3 -84 2 -187z m6792 73 c0 -58 -4 -108 -10
-111 -5 -3 -23 14 -40 37 -18 24 -45 48 -62 54 l-31 10 35 22 c20 13 46 38 57
57 11 19 27 35 36 35 12 0 15 -17 15 -104z m-10560 -3 c0 -10 -5 -25 -10 -33
-7 -11 -10 -7 -10 18 0 17 5 32 10 32 6 0 10 -8 10 -17z m-9 -120 c27 -7 24
-20 -7 -27 -14 -4 -33 -20 -42 -36 -9 -17 -20 -30 -24 -30 -13 0 -9 33 7 64 8
15 15 32 15 36 0 5 5 21 12 37 l12 28 4 -34 c2 -23 10 -35 23 -38z m8233 -8
c20 4 36 2 40 -4 5 -7 -8 -11 -38 -11 -66 0 -94 -14 -105 -52 l-9 -33 -1 30
c-1 16 6 48 15 71 l16 41 24 -24 c19 -19 30 -23 58 -18z m-8159 -5 c3 -5 -3
-10 -14 -10 -12 0 -21 5 -21 10 0 6 6 10 14 10 8 0 18 -4 21 -10z m-327 -103
c4 -92 -7 -128 -42 -140 -34 -11 -218 1 -210 14 3 5 19 9 35 9 36 0 96 30 125
62 12 12 29 47 39 76 12 39 21 52 33 50 14 -3 18 -17 20 -71z m10937 -26 c0
-79 -2 -85 -26 -104 -24 -17 -36 -19 -118 -12 -50 4 -91 11 -91 16 0 5 13 9
30 9 65 0 150 64 150 113 0 34 20 68 38 65 14 -3 17 -15 17 -87z m-10748 -73
c22 -24 9 -52 -20 -44 -12 3 -37 6 -54 6 -41 0 -42 14 -4 49 17 16 33 41 37
57 12 51 19 50 22 -1 2 -27 10 -58 19 -67z m8173 57 c0 -20 7 -47 16 -61 9
-13 15 -26 13 -28 -10 -10 -96 -15 -109 -7 -12 8 -9 16 16 48 17 21 34 48 38
61 11 34 26 26 26 -13z m-4290 -81 c0 -16 -36 -24 -71 -17 -36 7 -37 25 -2 68
l27 34 23 -37 c12 -20 23 -42 23 -48z m3424 13 c5 -20 -33 -40 -68 -35 -29 4
-31 29 -4 71 l23 35 22 -27 c12 -14 24 -34 27 -44z m-6027 21 c22 -21 31 -47
16 -49 -87 -15 -118 6 -73 51 25 25 28 25 57 -2z"/>
<path d="M590 6331 c-17 -33 -13 -243 6 -269 l15 -22 39 20 c22 11 47 31 55
44 22 33 30 125 16 169 -22 65 -107 102 -131 58z"/>
<path d="M5062 6325 c-43 -36 -52 -88 -52 -307 0 -211 6 -247 47 -290 23 -24
35 -28 78 -28 54 0 77 15 104 67 16 31 25 266 16 398 l-7 110 -38 37 c-47 48
-101 52 -148 13z"/>
<path d="M10796 6334 c-11 -29 -7 -269 5 -281 20 -20 103 29 120 69 16 37 15
138 -1 169 -25 46 -111 76 -124 43z"/>
</g>
</svg>
